<?xml version="1.0" encoding="UTF-8" standalone="no"?>
<svg
   xmlns:dc="http://purl.org/dc/elements/1.1/"
   xmlns:cc="http://creativecommons.org/ns#"
   xmlns:rdf="http://www.w3.org/1999/02/22-rdf-syntax-ns#"
   xmlns:svg="http://www.w3.org/2000/svg"
   xmlns="http://www.w3.org/2000/svg"
   id="svg64"
   version="1.1"
   viewBox="0 0 85.510003 49.932015"
   height="188.71971"
   width="323.1879">
  <metadata
     id="metadata68">
    <rdf:RDF>
      <cc:Work
         rdf:about="">
        <dc:format>image/svg+xml</dc:format>
        <dc:type
           rdf:resource="http://purl.org/dc/dcmitype/StillImage" />
        <dc:title></dc:title>
      </cc:Work>
    </rdf:RDF>
  </metadata>
  <defs
     id="defs8">
    <clipPath
       id="a">
      <path
         style="fill:#e6e6e6;stroke-width:0.26499999"
         id="path2"
         d="m 43.739,147.685 a 6.615,4.696 0 0 0 -3.616,1.916 3.44,2.646 90 0 0 -0.165,1.188 3.44,2.646 90 0 0 0.48,1.968 6.02,2.778 0 0 1 3.026,-0.38 6.02,2.778 0 0 1 1.45,0.085 3.44,2.646 90 0 0 0.336,-1.673 3.44,2.646 90 0 0 -1.511,-3.104 z" />
    </clipPath>
    <clipPath
       id="b">
      <path
         style="fill:#e6e6e6;stroke-width:0.26499999"
         id="path5"
         d="m 50.323,147.685 a 6.615,4.696 0 0 1 3.616,1.916 3.44,2.646 90 0 1 0.165,1.188 3.44,2.646 90 0 1 -0.48,1.968 6.02,2.778 0 0 0 -3.026,-0.38 6.02,2.778 0 0 0 -1.45,0.085 3.44,2.646 90 0 1 -0.336,-1.673 3.44,2.646 90 0 1 1.511,-3.104 z" />
    </clipPath>
  </defs>
  <path
     style="fill:#ffffff"
     d="m 10.084,38.451016 h 4.47 q 1.372,0.051 1.677,0.711 0.254,0.483 0.254,1.423 v 5.588 q 0,0.813 -0.711,1.55 -2.134,2.209 -6.401,2.209 -3.785,0 -6.579,-2.845 -2.794,-2.87 -2.794,-6.909 0,-4.038 2.845,-6.73 2.845,-2.718 6.706,-2.718 2.997,0 5.664,1.98 0.686,0.509 0.686,1.144 0,0.61 -0.584,1.422 -0.991,1.346 -1.804,1.346 -0.482,0 -1.55,-0.685 -1.066,-0.712 -2.54,-0.712 -1.93,0 -3.428,1.372 -1.499,1.346 -1.499,3.556 0,2.184 1.524,3.734 1.524,1.524 3.455,1.524 1.397,0 2.514,-0.457 v -2.769 H 9.983 q -0.788,0 -1.118,-0.203 -0.33,-0.203 -0.432,-0.584 -0.101,-0.407 -0.101,-1.067 0,-0.686 0.101,-1.092 0.127,-0.407 0.432,-0.56 0.457,-0.228 1.22,-0.228 z m 8.454,-5.156 q 0,-0.584 0.026,-0.864 0.05,-0.304 0.254,-0.685 0.355,-0.686 1.98,-0.686 1.779,0 2.11,0.94 0.126,0.431 0.126,1.32 v 14.123 q 0,0.61 -0.05,0.889 -0.026,0.28 -0.23,0.66 -0.355,0.686 -1.98,0.686 -1.778,0 -2.083,-0.965 -0.153,-0.407 -0.153,-1.296 z"
     id="path10" />
  <path
     style="fill:#ffffff"
     d="m 34.012,31.034016 c -0.175,0 -0.333,0.01 -0.483,0.026 h -6.13 c -0.898,0 -1.508,0.16 -1.83,0.482 -0.321,0.305 -0.482,0.89 -0.482,1.753 v 14.122 c 0,0.593 0.05,1.025 0.152,1.296 0.203,0.643 0.898,0.965 2.083,0.965 1.084,0 1.744,-0.228 1.981,-0.686 0.136,-0.254 0.212,-0.474 0.229,-0.66 0.033,-0.186 0.05,-0.483 0.05,-0.89 v -4.8 h 4.98 c 0.592,0 1.023,-0.042 1.294,-0.127 0.644,-0.22 0.966,-0.923 0.966,-2.108 0,-1.084 -0.22,-1.753 -0.66,-2.007 -0.255,-0.135 -0.483,-0.211 -0.687,-0.228 -0.186,-0.034 -0.482,-0.05 -0.888,-0.05 h -5.004 v -2.567 h 7.772 c 0.406,0 0.703,-0.008 0.89,-0.025 0.184,-0.03 0.392,-0.1 0.618,-0.201 v 12.14 c 0,0.389 0.009,0.685 0.026,0.888 a 2.8,2.8 0 0 0 0.229,0.66 c 0.135,0.238 0.355,0.407 0.66,0.509 0.322,0.101 0.745,0.152 1.27,0.152 0.525,0 0.948,-0.05 1.27,-0.152 0.322,-0.102 0.542,-0.271 0.66,-0.508 0.136,-0.254 0.212,-0.475 0.229,-0.66 a 5.3,5.3 0 0 0 0.05,-0.864 v -12.777 h 4.852 c 0.559,0 0.99,-0.076 1.295,-0.228 0.203,-0.102 0.348,-0.28 0.432,-0.533 0.085,-0.271 0.127,-0.627 0.127,-1.068 0,-0.44 -0.042,-0.795 -0.127,-1.066 a 0.92,0.92 0 0 0 -0.508,-0.585 c -0.254,-0.135 -0.652,-0.203 -1.193,-0.203 z"
     id="path12" />
  <path
     style="fill:#ffffff"
     d="m 55.148,36.445016 q 0.483,0.152 0.788,0.533 0.33,0.356 0.33,1.168 0,0.813 -0.483,1.778 -0.482,0.966 -1.397,0.966 -0.457,0 -0.889,-0.204 -0.406,-0.203 -1.092,-0.203 -0.686,0 -1.295,0.483 -0.585,0.482 -0.585,1.168 v 5.334 q 0,0.584 -0.05,0.89 -0.026,0.279 -0.229,0.66 -0.381,0.66 -1.981,0.66 -1.22,0 -1.753,-0.432 -0.406,-0.355 -0.457,-1.092 v -9.652 q 0,-0.584 0.025,-0.864 0.051,-0.304 0.229,-0.66 0.356,-0.686 1.981,-0.686 1.524,0 1.905,0.584 0.28,0.407 0.28,0.839 0.127,-0.178 0.355,-0.432 0.254,-0.254 1.042,-0.686 0.787,-0.432 1.371,-0.432 0.61,0 1.016,0.076 0.407,0.051 0.89,0.204 z m 1.39,6.553 q 0,-3.048 2.134,-5.03 2.134,-1.98 4.877,-1.98 2.743,0 4.851,1.98 2.108,1.956 2.108,5.004 0,2.109 -1.092,3.76 -1.092,1.625 -2.667,2.413 -1.55,0.762 -3.226,0.762 -1.676,0 -3.25,-0.813 -1.576,-0.838 -2.668,-2.439 -1.067,-1.625 -1.067,-3.657 z m 5.31,1.829 q 0.812,0.61 1.65,0.61 0.838,0 1.676,-0.636 0.839,-0.635 0.839,-1.88 0,-1.244 -0.788,-1.854 -0.787,-0.61 -1.702,-0.61 -0.914,0 -1.701,0.636 -0.788,0.635 -0.788,1.88 0,1.219 0.813,1.854 z m 17.744,-8.535 q 2.54,0 4.216,1.956 1.702,1.93 1.702,4.724 v 4.47 q 0,0.585 -0.05,0.89 -0.026,0.28 -0.204,0.635 -0.356,0.686 -1.981,0.686 -1.804,0 -2.083,-0.94 -0.152,-0.432 -0.152,-1.296 v -4.47 q 0,-1.041 -0.61,-1.626 -0.584,-0.584 -1.6,-0.584 -0.99,0 -1.626,0.61 -0.61,0.61 -0.61,1.6 v 4.496 q 0,0.584 -0.05,0.889 -0.026,0.28 -0.229,0.635 -0.33,0.686 -1.956,0.686 -1.6,0 -1.955,-0.686 -0.178,-0.381 -0.23,-0.66 -0.024,-0.305 -0.024,-0.89 v -8.991 q 0,-0.559 0.025,-0.838 0.05,-0.305 0.254,-0.66 0.356,-0.636 1.956,-0.636 1.55,0 1.905,0.584 0.254,0.432 0.254,1.042 0.101,-0.178 0.457,-0.508 0.356,-0.33 0.686,-0.534 0.863,-0.584 1.905,-0.584 z"
     id="path14" />
  <g
     transform="matrix(0.5,0,0,0.5,7.446,-50.962984)"
     id="g58">
    <path
       d="m 88.437,129.223 a 4.096,4 0 0 0 -4.096,4 4.096,4 0 0 0 0.39,1.693 l -3.504,4.26 3.572,3.44 3.117,-5.429 a 4.096,4 0 0 0 0.521,0.037 4.096,4 0 0 0 3.498,-1.93 l 6.289,-0.368 c 3.567,5.178 7.604,12.957 9.866,20.382 l -8.078,-0.522 0.794,4.366 17.86,0.992 0.793,-4.1 -8.056,-0.522 c -2.19,-9.714 -4.29,-16.48 -6.105,-21.01 l 10.722,-0.628 -0.066,-3.902 -24.232,0.86 a 4.096,4 0 0 0 -3.285,-1.62 z"
       id="path16"
       style="fill:#00aa88;stroke:#000000;stroke-width:0.70563483" />
    <path
       d="m 100.608,153.564 a 4.096,4 0 0 0 -3.967,3.026 l -4.01,2.144 a 4.127,3.89 0 0 0 -2.011,-0.495 4.127,3.89 0 0 0 -4.128,3.89 4.127,3.89 0 0 0 3.087,3.758 l 1.361,7.236 a 5.424,5.622 0 0 0 -4.548,5.419 9.591,4.233 0 0 0 5.75,0.85 9.591,4.233 0 0 0 5.089,-0.647 5.424,5.622 0 0 0 0.003,-0.08 5.424,5.622 0 0 0 -3.095,-5.071 l -1.156,-8.283 a 4.127,3.89 0 0 0 1.764,-3.182 4.127,3.89 0 0 0 -0.03,-0.424 l 3.04,-1.274 a 4.096,4 0 0 0 2.85,1.134 4.096,4 0 0 0 4.097,-4 4.096,4 0 0 0 -4.096,-4 z m 18.521,1.188 a 3.334,3.143 0 0 0 -3.334,3.143 3.334,3.143 0 0 0 3.334,3.144 3.334,3.143 0 0 0 0.894,-0.115 l 3.864,2.217 a 2.858,2.762 0 0 0 -0.01,0.178 2.858,2.762 0 0 0 2.844,2.762 l 3.811,7.673 a 3.955,4.1 0 0 0 -0.616,2.108 6.994,3.087 0 0 0 4.192,0.62 6.994,3.087 0 0 0 3.711,-0.472 3.955,4.1 0 0 0 0.003,-0.058 3.955,4.1 0 0 0 -3.955,-4.1 3.955,4.1 0 0 0 -1.912,0.514 l -2.873,-7.471 a 2.858,2.762 0 0 0 0.511,-1.576 2.858,2.762 0 0 0 -2.858,-2.762 2.858,2.762 0 0 0 -0.741,0.096 l -3.545,-2.5 a 3.334,3.143 0 0 0 0.013,-0.258 3.334,3.143 0 0 0 -3.333,-3.143 z m 26.421,-40.137 a 5.622,5.424 10.486 0 0 -5.397,4.407 5.622,5.424 10.486 0 0 -0.075,0.697 l -9.8,3.743 a 3.048,2.857 0 0 0 -2.22,-0.902 3.048,2.857 0 0 0 -3.048,2.858 3.048,2.857 0 0 0 0.021,0.3 l -6.909,3.245 a 3.429,3.429 0 0 0 -1.97,-0.624 3.429,3.429 0 0 0 -3.43,3.429 3.429,3.429 0 0 0 3.43,3.429 3.429,3.429 0 0 0 3.415,-3.16 l 7.521,-3.913 a 3.048,2.857 0 0 0 0.97,0.151 3.048,2.857 0 0 0 2.923,-2.05 l 9.456,-4.326 a 5.622,5.424 10.486 0 0 4.136,3.451 4.233,9.591 10.486 0 0 1.884,-5.497 4.233,9.591 10.486 0 0 0.289,-5.123 5.622,5.424 10.486 0 0 -0.078,-0.019 5.622,5.424 10.486 0 0 -1.118,-0.096 z"
       id="path18"
       style="fill:#00aa88;stroke:#000000;stroke-width:0.70563483" />
    <path
       d="m 79.507,123.301 23.284,-8.731 9.922,21.696 -22.226,6.879 z"
       id="path20"
       style="fill:#d40000" />
    <path
       d="m 102.79,114.57 2.382,-8.996 7.54,16.801 v 13.89 z"
       id="path22"
       style="fill:#ff2a2a" />
    <path
       d="m 79.507,123.301 4.763,-9.79 20.902,-7.937 -2.381,8.996 z"
       id="path24"
       style="fill:#ff2a2a" />
    <path
       d="m 89.098,119.73 10.32,20.637 2.579,-0.794 -9.922,-20.968 z"
       id="path26"
       style="fill:#800000" />
    <path
       d="m 104.312,108.617 -10.208,3.902 1.08,-3.24 -2.778,1.19 -1.116,3.126 -8.608,3.29 -0.926,1.918 8.857,-3.314 -1.515,4.24 2.977,-1.124 1.395,-4.186 10.379,-3.884 z"
       id="path28"
       style="fill:#d40000" />
    <path
       d="m 103.849,110.535 8.797,19.513 v -2.712 l -8.334,-18.72 z"
       id="path30"
       style="fill:#d40000" />
    <path
       d="m 89.792,124.764 a 4.696,6.615 70.595 0 0 -2.774,3.009 3.44,2.646 70.595 0 0 0.24,1.174 3.44,2.646 70.595 0 0 1.105,1.697 2.778,6.02 70.595 0 1 2.728,-1.364 2.778,6.02 70.595 0 1 1.397,-0.401 3.44,2.646 70.595 0 0 -0.24,-1.69 3.44,2.646 70.595 0 0 -2.456,-2.425 z m 6.848,-2.67 a 5.636,7.937 70.595 0 1 4.857,0.727 4.128,3.175 70.595 0 1 0.66,1.278 4.128,3.175 70.595 0 1 0.242,2.419 3.334,7.223 70.595 0 0 -3.577,0.776 3.334,7.223 70.595 0 0 -1.608,0.675 4.128,3.175 70.595 0 1 -1.046,-1.76 4.128,3.175 70.595 0 1 0.473,-4.115 z"
       id="path32"
       style="fill:#e6e6e6;stroke:#000000;stroke-width:0.35299999" />
    <circle
       clip-path="url(#a)"
       transform="rotate(-19.405,-0.265,1.547)"
       r="1.852"
       cy="149.466"
       cx="43.661999"
       id="circle34"
       style="fill:#333333" />
    <circle
       clip-path="url(#b)"
       transform="matrix(1.1318324,-0.39869213,0.39869213,1.1318324,-19.197433,-24.998112)"
       cx="52.394001"
       cy="149.466"
       r="1.852"
       id="circle36"
       style="fill:#333333" />
    <path
       d="m 105.172,105.574 -20.902,7.936 -4.763,9.79 10.98,19.844 22.225,-6.88 v -13.89 z"
       id="path38"
       style="fill:none;stroke:#000000;stroke-width:0.70563483" />
    <path
       d="m 91.908,113.934 1.387,1.904 1.263,-1.612 -0.342,-0.954 1.156,0.285 1.992,-1.063 -1.922,-0.974 3.066,-0.158 -1.22,-2.21 -1.34,-0.05 0.68,-1.006 0.213,-1.664 c 0,0 -0.803,0.746 -1.423,1.02 0.211,-0.79 1.422,-2.403 1.422,-2.403 0,0 -1.099,-0.605 -1.925,-0.525 -0.206,0.02 -0.437,0.08 -0.668,0.159 -0.083,-0.373 -0.132,-0.53 -0.513,-0.705 -0.256,0.67 -0.862,1.343 -0.862,1.343 l 0.18,-2.086 c 0,0 -1.435,0.08 -2.52,0.87 -0.678,0.94 -0.755,1.27 -0.755,1.27 0,0 -1.138,-0.348 -2.056,-0.322 -0.493,0.059 -0.932,0.159 -0.932,0.159 0,0 0.467,0.518 0.578,0.833 0,0 0.031,0.496 -0.178,0.87 -0.317,-0.023 -0.656,-0.075 -1.117,-0.929 -0.29,0.272 -0.305,0.666 -0.426,1.049 -0.211,0.052 -0.417,0.119 -0.609,0.202 -0.518,0.225 -0.934,0.608 -1.153,0.948 0.56,-0.077 1.47,0.685 1.758,0.98 -0.618,0.168 -1.61,-0.049 -1.917,-0.265 l -0.26,1.365 c 0.471,0.008 0.815,0.185 1.377,0.463 -0.723,0.084 -1.477,0.437 -1.913,0.817 -0.524,0.516 -0.787,2.605 -0.732,2.964 1.151,-0.648 3.69,-1.224 4.916,-1.444 -0.525,0.666 -1.548,1.709 -2.264,2.127 0.2,0.357 1.53,-0.217 2.452,-0.59 0.482,-0.194 1.185,-0.6 1.185,-0.6 0,0 -0.349,1.084 -0.216,1.422 0.133,0.338 2.337,1.665 2.337,1.665 z"
       id="path40"
       style="fill:#550000" />
    <path
       d="m 94.558,114.226 c -0.016,1.013 -0.482,3.12 -0.696,3.402 -0.881,0.724 -2.408,1.362 -3.484,0.757 -0.718,-0.815 -1.44,-1.722 -2.108,-2.961 1.527,0.203 4.364,-0.341 6.288,-1.198 z m 0.814,-0.669 c 1.378,0.038 3.725,-0.785 4.411,-1.008 0.686,-0.223 0.69,-0.822 0.652,-0.961 -0.038,-0.14 -1.677,-1.602 -3.147,-2.437 0.67,0.79 -0.274,3.886 -1.916,4.406 z M 98,106.268 c 0.496,-0.77 0.278,-1.421 0.144,-1.609 -0.134,-0.188 -0.856,-0.404 -1.222,-0.38 -0.367,0.025 -2.007,0.245 -2.007,0.245 0.894,0.394 1.084,0.714 1.41,1.375 0.32,0.654 0.304,2.197 0.304,2.197 0,0 0.902,-0.954 1.37,-1.828 z m -6.353,-1.718 c -0.692,-1.177 -1.658,-1.532 -2.629,-1.287 -0.857,0.215 -1.611,1.09 -1.496,2.74 0.37,-1.464 0.982,-1.886 1.748,-2.117 0.613,-0.185 1.481,-0.196 2.377,0.664 z m -6.649,2.698 c -1.072,0.402 -1.826,0.756 -1.965,1.391 -0.139,0.636 0.996,1.076 1.616,1.3 -0.924,-1.039 -0.765,-1.754 0.35,-2.691 z m -2.157,4.358 c -0.41,0.357 -1.113,3.16 -1.113,3.16 -0.075,0.413 0.41,0.75 1.229,0.864 0.819,0.114 2.826,-0.28 4.644,-1.146 -2.214,0.245 -3.535,-0.5 -4.072,-1.027 -0.536,-0.528 -0.718,-1.229 -0.688,-1.85 z"
       id="path42"
       style="fill:#800000" />
    <path
       d="m 95.252,110.282 1.196,3.88 c -0.103,0.308 -0.48,0.523 -0.713,0.586 -0.838,-0.11 -3.504,-0.696 -4.298,-0.948 0.882,-0.874 2.416,-2.56 3.815,-3.518 z"
       id="path44"
       style="fill:#aa0000" />
    <path
       d="m 92.867,111.582 c 1.489,-0.628 4.31,-2.382 4.952,-2.687 0.643,-0.305 0.764,-0.394 0.954,-0.613 0.189,-0.22 0.495,-0.62 0.352,-0.843 -0.458,-0.082 -3.377,-1.066 -3.719,-1.179 0.263,0.433 0.027,2.205 -0.604,3.508 -0.227,0.469 -0.48,1.064 -1.977,1.732 0.038,-0.01 0.042,0.082 0.042,0.082 z"
       id="path46"
       style="fill:#d40000" />
    <path
       d="m 94.632,105.853 -0.633,-3.64 c -0.056,-0.284 -0.364,-0.35 -0.601,-0.23 -0.237,0.12 -2.126,1.566 -2.866,2.122 0.691,-0.356 1.165,-0.596 1.666,-0.508 0.5,0.089 1.94,0.428 2.275,2.28 -0.024,-0.012 0.16,-0.024 0.16,-0.024 z m -6.178,-0.999 c -0.943,-0.193 -2.442,-0.217 -2.63,-0.222 -0.188,-0.005 -0.367,0.1 -0.359,0.359 0.008,0.26 0.089,2.853 0.135,3.177 l 0.097,-0.026 c -0.127,-0.545 0.295,-1.893 0.891,-2.372 0.596,-0.479 1.046,-0.806 1.866,-0.916 z m -3.331,3.238 c -0.787,0.307 -2.802,1.974 -3.05,2.134 -0.246,0.16 -0.195,0.501 0.031,0.57 0.226,0.07 2.362,0.837 2.852,1.04 -0.043,-0.006 0,0 0,0 -0.557,-0.297 -0.962,-1.103 -1.05,-1.658 -0.049,-0.79 0.28,-1.57 1.236,-2.016 z m 1.063,4.458 c 0,0 0.184,3.743 0.212,3.923 0.028,0.18 0.254,0.249 0.5,0.088 0.248,-0.16 3.805,-2.637 3.805,-2.637 -0.81,0.07 -1.822,-0.225 -2.566,-0.445 -0.61,-0.18 -1.693,-0.588 -1.951,-0.929 z"
       id="path48"
       style="fill:#aa0000" />
    <path
       d="m 87.046,107.31 c 0.347,-0.786 1.143,-1.3 2.073,-1.608 0.952,-0.316 2.031,-0.307 2.368,-0.137 0,0 -3.056,-2.48 -3.214,-2.605 -0.158,-0.125 -0.28,0.038 -0.349,0.244 -0.068,0.205 -0.818,3.79 -0.878,4.105 z m 4.069,-1.588 4.097,-1.708 c 0.116,-0.031 0.453,0.064 0.417,0.467 -0.036,0.402 -1.083,4.497 -1.083,4.497 0.066,-0.597 -0.837,-1.791 -1.6,-2.463 -0.762,-0.672 -1.426,-0.903 -1.831,-0.793 z m -5.55,3.39 -2.063,3.25 c 0.2,0.356 0.445,0.496 0.85,0.46 0.233,-0.02 4.81,-0.61 4.81,-0.61 -1.119,-0.763 -2.587,-1.897 -3.597,-3.1 z"
       id="path50"
       style="fill:#d40000" />
    <path
       d="m 86.574,109.773 1.564,-2.871 c 0.364,-0.417 1.435,-0.52 2.254,-0.405 0.818,0.115 2.93,0.87 3.053,2.013 l -1.12,2.602 c -0.351,-0.764 -1.741,-1.27 -3.373,-1.59 -0.93,-0.183 -1.884,-0.144 -2.378,0.251 0.019,-0.005 0,0 0,0 z"
       id="path52"
       style="fill:#d40000" />
    <path
       d="m 93.263,110.67 c -0.923,-0.272 -2.005,-0.135 -3.307,0.187 -1.089,0.268 -2.093,0.847 -2.4,1.621 0.028,0.03 2.928,1.935 2.928,1.935 0.184,-0.162 0.665,-0.276 0.878,-0.2 z"
       id="path54"
       style="fill:#d40000" />
    <path
       d="m 101.666,128.328 a 5.887,5.82 0 0 0 -5.865,5.383 l -10.391,3.897 a 4.286,4.286 0 0 0 -2.662,-0.932 4.286,4.286 0 0 0 -4.286,4.286 4.286,4.286 0 0 0 4.286,4.286 4.286,4.286 0 0 0 4.17,-3.316 l 10.795,-3.479 a 5.887,5.82 0 0 0 3.953,1.517 5.887,5.82 0 0 0 5.887,-5.821 5.887,5.82 0 0 0 -5.887,-5.82 z"
       id="path56"
       style="fill:#00aa88;stroke:#000000;stroke-width:0.70563483" />
  </g>
</svg>
